<svg width="41" height="27" viewBox="0 0 41 27" fill="none" xmlns="http://www.w3.org/2000/svg">
    <path d="M4 5C4 20.4545 4 -5.81816 4 22" stroke="#3F3F3F" />
    <path d="M8 5C8 20.4545 8 -5.81816 8 22" stroke="#3F3F3F" />
    <path d="M6 5C6 20.4545 6 -5.81816 6 22" stroke="#3F3F3F" />
    <path d="M11 5C11 20.4545 11 -5.81816 11 22" stroke="#3F3F3F" />
    <path d="M12 5C12 20.4545 12 -5.81816 12 22" stroke="#3F3F3F" />
    <path d="M15 5C15 20.4545 15 -5.81816 15 22" stroke="#3F3F3F" />
    <path d="M16 5C16 20.4545 16 -5.81816 16 22" stroke="#3F3F3F" />
    <path d="M17 5C17 20.4545 17 -5.81816 17 22" stroke="#3F3F3F" />
    <path d="M26 5C26 20.4545 26 -5.81816 26 22" stroke="#3F3F3F" />
    <path d="M20 5C20 20.4545 20 -5.81816 20 22" stroke="#3F3F3F" />
    <path d="M29 5C29 20.4545 29 -5.81816 29 22" stroke="#3F3F3F" />
    <path d="M22 5C22 20.4545 22 -5.81816 22 22" stroke="#3F3F3F" />
    <path d="M31 5C31 20.4545 31 -5.81816 31 22" stroke="#3F3F3F" />
    <path d="M25 5C25 20.4545 25 -5.81816 25 22" stroke="#3F3F3F" />
    <path d="M34 5C34 20.4545 34 -5.81816 34 22" stroke="#3F3F3F" />
    <path d="M26 5C26 20.4545 26 -5.81816 26 22" stroke="#3F3F3F" />
    <path d="M35 5C35 20.4545 35 -5.81816 35 22" stroke="#3F3F3F" />
    <path d="M28 5C28 20.4545 28 -5.81816 28 22" stroke="#3F3F3F" />
    <path d="M37 5C37 20.4545 37 -5.81816 37 22" stroke="#3F3F3F" />
    <rect x="0.5" y="0.5" width="40" height="26" rx="2.5" stroke="#A2A6AC" />
</svg>
    