<svg width="41" height="44" viewBox="0 0 41 44" fill="none" xmlns="http://www.w3.org/2000/svg">
    <path d="M40.3427 33.2252C40.3427 34.4786 39.3871 35.5042 38.2191 35.5042H2.7809C1.61288 35.5042 0.657227 34.4786 0.657227 33.2252V10.7749C0.657227 9.52137 1.61288 8.49579 2.7809 8.49579H38.2191C39.3871 8.49579 40.3427 9.52137 40.3427 10.7749V33.2252Z" fill="#61B8CC" />
    <path d="M40.3425 12.5035H0.657227V15.2005H40.3425V12.5035Z" fill="#333E48" />
    <path d="M37.0113 23.0256C37.0113 23.527 36.6291 23.9373 36.1619 23.9373H31.5961C31.129 23.9373 30.7466 23.527 30.7466 23.0256V20.0628C30.7466 19.5614 31.129 19.1512 31.5961 19.1512H36.1619C36.6291 19.1512 37.0113 19.5614 37.0113 20.0628V23.0256Z" fill="#FED771" />
    <path d="M33.8786 23.2954C35.1675 23.2954 36.2124 22.5114 36.2124 21.5443C36.2124 20.5772 35.1675 19.7932 33.8786 19.7932C32.5898 19.7932 31.5449 20.5772 31.5449 21.5443C31.5449 22.5114 32.5898 23.2954 33.8786 23.2954Z" fill="#E5AB46" />
    <path d="M18.3764 19.1132H3.8291V23.9761H18.3764V19.1132Z" fill="#99DAEA" />
    <path d="M14.4581 27.8923C13.8931 27.8923 13.5065 28.3031 13.5065 28.8392V28.8471C13.5065 29.3752 13.8674 29.7157 14.4107 29.7157C14.6842 29.7157 14.881 29.5904 15.0087 29.4263C14.9941 29.9308 14.7681 30.287 14.3924 30.287C14.2173 30.287 14.0753 30.2323 13.9257 30.1188C13.8892 30.0952 13.8491 30.0797 13.8016 30.0797C13.6849 30.0797 13.5901 30.1736 13.5901 30.2988C13.5901 30.3887 13.6302 30.4553 13.6922 30.4983C13.8818 30.6353 14.0932 30.7253 14.3812 30.7253C15.0703 30.7253 15.4751 30.115 15.4751 29.2345V29.2266C15.4751 28.6865 15.3547 28.3853 15.1688 28.1819C14.9869 27.9901 14.7791 27.8923 14.4581 27.8923ZM14.9941 28.8197C14.9941 29.0857 14.8009 29.3126 14.4764 29.3126C14.1592 29.3126 13.9551 29.1093 13.9551 28.8236V28.8158C13.9551 28.534 14.1446 28.3071 14.4619 28.3071C14.7863 28.3071 14.9941 28.5263 14.9941 28.8117V28.8197ZM4.70051 27.904H4.69322C4.62755 27.904 4.56189 27.9197 4.47437 27.947L4.08791 28.08C3.9967 28.1073 3.9384 28.1856 3.9384 28.2874C3.9384 28.3969 4.02961 28.4909 4.13531 28.4909C4.15726 28.4909 4.19001 28.4868 4.21547 28.4791L4.47813 28.393V30.459C4.47813 30.5922 4.58023 30.6976 4.70051 30.6976C4.82455 30.6976 4.92288 30.5921 4.92288 30.459V28.1426C4.92296 28.0096 4.82815 27.904 4.70051 27.904ZM11.563 29.2579C11.7781 29.1366 11.9348 28.9528 11.9348 28.6476V28.6397C11.9348 28.2171 11.5594 27.9003 11.0489 27.9003C10.5384 27.9003 10.1629 28.2212 10.1629 28.6397V28.6476C10.1629 28.9528 10.3197 29.1367 10.5348 29.2579C10.2467 29.3871 10.0753 29.5944 10.0753 29.9231V29.9308C10.0753 30.4043 10.491 30.7174 11.0488 30.7174C11.6067 30.7174 12.0223 30.4122 12.0223 29.9231V29.9152C12.0224 29.5905 11.8437 29.3948 11.563 29.2579ZM10.5931 28.6828C10.5931 28.4753 10.7754 28.3031 11.0489 28.3031C11.3224 28.3031 11.5047 28.4753 11.5047 28.6865V28.6944C11.5047 28.9292 11.3114 29.0974 11.0489 29.0974C10.7863 29.0974 10.5931 28.9291 10.5931 28.6906V28.6828ZM11.5848 29.9035C11.5848 30.1305 11.3843 30.3144 11.0489 30.3144C10.7134 30.3144 10.5165 30.1266 10.5165 29.9035V29.8957C10.5165 29.6453 10.7462 29.481 11.0489 29.481C11.3516 29.481 11.5848 29.6453 11.5848 29.8957V29.9035ZM38.2191 7.79041H2.78087C1.24746 7.79041 0 9.12914 0 10.7748V33.2252C0 34.8708 1.24746 36.2095 2.78087 36.2095H38.219C39.7524 36.2095 40.9999 34.8708 40.9999 33.2252V10.7748C41 9.12914 39.7525 7.79041 38.2191 7.79041ZM39.6855 33.2252C39.6855 34.093 39.0278 34.7988 38.2191 34.7988H2.78087C1.97232 34.7988 1.31448 34.0929 1.31448 33.2252V15.9063H39.6854V33.2252H39.6855ZM39.6855 14.4956H1.31448V13.2093H39.6854V14.4956H39.6855ZM39.6855 11.7986H1.31448V10.7748C1.31448 9.90705 1.97224 9.20116 2.78087 9.20116H38.219C39.0277 9.20116 39.6854 9.90713 39.6854 10.7748V11.7986H39.6855ZM8.67502 27.8923C8.10999 27.8923 7.72337 28.3031 7.72337 28.8392V28.8471C7.72337 29.3752 8.08437 29.7157 8.62762 29.7157C8.90116 29.7157 9.09792 29.5904 9.22564 29.4263C9.21099 29.9308 8.98501 30.287 8.60936 30.287C8.43439 30.287 8.29217 30.2323 8.14258 30.1188C8.10615 30.0952 8.06603 30.0797 8.01854 30.0797C7.90179 30.0797 7.80706 30.1736 7.80706 30.2988C7.80706 30.3887 7.84718 30.4553 7.90908 30.4983C8.0987 30.6353 8.31011 30.7253 8.59815 30.7253C9.28722 30.7253 9.69202 30.115 9.69202 29.2345V29.2266C9.69202 28.6865 9.57182 28.3853 9.38572 28.1819C9.2037 27.9901 8.99598 27.8923 8.67502 27.8923ZM9.21099 28.8197C9.21099 29.0857 9.01776 29.3126 8.69328 29.3126C8.37601 29.3126 8.17189 29.1093 8.17189 28.8236V28.8158C8.17189 28.534 8.36144 28.3071 8.67871 28.3071C9.00318 28.3071 9.21099 28.5263 9.21099 28.8117V28.8197ZM7.11806 30.2557H6.08257L6.60757 29.7861C7.05969 29.3911 7.27125 29.1562 7.27125 28.7257V28.718C7.27125 28.2288 6.92852 27.9003 6.42899 27.9003C6.02788 27.9003 5.79093 28.0647 5.58313 28.3424C5.55029 28.3854 5.53212 28.4402 5.53212 28.4911C5.53212 28.6124 5.62317 28.7102 5.73632 28.7102C5.80927 28.7102 5.86036 28.675 5.89311 28.6357C6.0499 28.4324 6.19212 28.3307 6.39632 28.3307C6.62967 28.3307 6.80832 28.4871 6.80832 28.7572C6.80832 29.0036 6.68068 29.1796 6.33074 29.4966L5.54685 30.2126C5.4703 30.2791 5.4301 30.3574 5.4301 30.4514C5.4301 30.5923 5.53228 30.6783 5.67073 30.6783H7.11814C7.22753 30.6783 7.31498 30.5845 7.31498 30.4671C7.31482 30.3496 7.22737 30.2557 7.11806 30.2557ZM28.5588 30.4279C28.7666 30.6 29.0291 30.7252 29.3755 30.7252C29.9224 30.7252 30.3088 30.3535 30.3088 29.798V29.7901C30.3088 29.2109 29.9187 28.9292 29.4193 28.9292C29.2478 28.9292 29.1349 28.9604 29.0145 29.0076L29.0546 28.3658H30.0135C30.1229 28.3658 30.214 28.272 30.214 28.1546C30.214 28.0373 30.1229 27.9394 30.0135 27.9394H28.8577C28.7482 27.9394 28.6607 28.0294 28.6534 28.1546L28.5987 29.1405C28.595 29.2306 28.6205 29.301 28.6861 29.3518C28.7736 29.4184 28.8284 29.4457 28.8977 29.4457C28.967 29.4457 29.0873 29.3518 29.3352 29.3518C29.6452 29.3518 29.8639 29.5241 29.8639 29.8055V29.8134C29.8639 30.1031 29.6561 30.287 29.368 30.287C29.1675 30.287 28.9888 30.2087 28.8138 30.056C28.7774 30.0248 28.7372 30.0091 28.6825 30.0091C28.5659 30.0091 28.4674 30.1148 28.4674 30.2399C28.4676 30.3183 28.5041 30.3809 28.5588 30.4279ZM20.6316 30.6782H22.0791C22.1885 30.6782 22.2761 30.5844 22.2761 30.467C22.2761 30.3496 22.1885 30.2557 22.0791 30.2557H21.0436L21.5686 29.7861C22.0208 29.3911 22.2323 29.1562 22.2323 28.7257V28.718C22.2323 28.2288 21.8896 27.9003 21.3901 27.9003C20.989 27.9003 20.752 28.0647 20.5442 28.3423C20.5114 28.3853 20.4932 28.4401 20.4932 28.491C20.4932 28.6123 20.5842 28.7101 20.6974 28.7101C20.7703 28.7101 20.8213 28.6749 20.8542 28.6357C21.0111 28.4323 21.1532 28.3306 21.3574 28.3306C21.5907 28.3306 21.7694 28.487 21.7694 28.7571C21.7694 29.0035 21.6418 29.1796 21.2918 29.4965L20.5079 30.2125C20.4314 30.279 20.3913 30.3573 20.3913 30.4513C20.391 30.5923 20.4931 30.6782 20.6316 30.6782ZM31.5959 24.6426H36.1618C36.9926 24.6426 37.6684 23.9172 37.6684 23.0256V20.0628C37.6684 19.1712 36.9925 18.446 36.1618 18.446H31.5959C30.7651 18.446 30.0893 19.1714 30.0893 20.0628V23.0256C30.0893 23.9172 30.7651 24.6426 31.5959 24.6426ZM31.4038 20.0628C31.4038 19.951 31.4918 19.8566 31.5959 19.8566H36.1618C36.2659 19.8566 36.3539 19.9511 36.3539 20.0628V23.0256C36.3539 23.1374 36.2659 23.2319 36.1618 23.2319H31.5959C31.4918 23.2319 31.4038 23.1374 31.4038 23.0256V20.0628ZM27.1038 30.7174C27.6617 30.7174 28.0773 30.4122 28.0773 29.9231V29.9152C28.0773 29.5904 27.8987 29.3948 27.6179 29.2578C27.8331 29.1365 27.9898 28.9527 27.9898 28.6475V28.6396C27.9898 28.2171 27.6142 27.9002 27.1038 27.9002C26.5933 27.9002 26.2178 28.2211 26.2178 28.6396V28.6475C26.2178 28.9527 26.3746 29.1366 26.5896 29.2578C26.3016 29.387 26.1302 29.5943 26.1302 29.923V29.9307C26.1303 30.4043 26.546 30.7174 27.1038 30.7174ZM26.648 28.6828C26.648 28.4753 26.8303 28.3031 27.1038 28.3031C27.3773 28.3031 27.5596 28.4753 27.5596 28.6865V28.6944C27.5596 28.9292 27.3664 29.0974 27.1038 29.0974C26.8412 29.0974 26.648 28.9291 26.648 28.6906V28.6828ZM26.5714 29.8957C26.5714 29.6453 26.8012 29.481 27.1038 29.481C27.4064 29.481 27.6398 29.6453 27.6398 29.8957V29.9035C27.6398 30.1305 27.4393 30.3144 27.1038 30.3144C26.7684 30.3144 26.5714 30.1266 26.5714 29.9035V29.8957ZM24.6826 29.7157C24.9561 29.7157 25.1529 29.5904 25.2806 29.4263C25.2659 29.9308 25.0399 30.287 24.6645 30.287C24.4893 30.287 24.3474 30.2323 24.1977 30.1188C24.1613 30.0952 24.1211 30.0797 24.0736 30.0797C23.957 30.0797 23.8622 30.1736 23.8622 30.2988C23.8622 30.3887 23.9022 30.4553 23.9643 30.4983C24.1539 30.6353 24.3653 30.7253 24.6533 30.7253C25.3425 30.7253 25.7472 30.115 25.7472 29.2345V29.2266C25.7472 28.6865 25.6268 28.3853 25.4409 28.1819C25.2586 27.9902 25.0508 27.8923 24.7299 27.8923C24.1649 27.8923 23.7782 28.3031 23.7782 28.8392V28.8471C23.7783 29.3753 24.1394 29.7157 24.6826 29.7157ZM24.2269 28.8157C24.2269 28.5339 24.4165 28.307 24.7337 28.307C25.0582 28.307 25.266 28.5262 25.266 28.8117V28.8196C25.266 29.0856 25.0727 29.3125 24.7483 29.3125C24.431 29.3125 24.2269 29.1092 24.2269 28.8235V28.8157ZM32.6535 29.6687H32.4566V28.131C32.4566 28.0018 32.3582 27.9001 32.2379 27.9001C32.1066 27.9001 32.0445 27.9549 31.9642 28.0566L30.7647 29.5827C30.699 29.6648 30.6662 29.7431 30.6662 29.8369C30.6662 29.9698 30.7647 30.0639 30.885 30.0639H32.0262V30.4708C32.0262 30.5999 32.1211 30.6977 32.2415 30.6977C32.3618 30.6977 32.4565 30.5999 32.4565 30.4708V30.0639H32.6535C32.7592 30.0639 32.8394 29.9778 32.8394 29.8683C32.8395 29.7587 32.7593 29.6687 32.6535 29.6687ZM32.0264 29.6687H31.1878L32.0264 28.585V29.6687ZM18.2613 28.1505C18.2613 28.2641 18.3489 28.3579 18.4582 28.3579H19.3844L18.7863 29.0427C18.7171 29.1171 18.6915 29.1758 18.6915 29.2382C18.6915 29.3517 18.779 29.4456 18.8848 29.4456H18.976C19.3333 29.4456 19.563 29.5982 19.563 29.8682V29.876C19.563 30.1264 19.3734 30.2908 19.1218 30.2908C18.8848 30.2908 18.7026 30.2008 18.5421 30.0285C18.5057 29.9935 18.4582 29.9661 18.3926 29.9661C18.2759 29.9661 18.1774 30.0717 18.1774 30.1967C18.1774 30.2674 18.2102 30.3337 18.2504 30.369C18.4582 30.5842 18.739 30.7251 19.1146 30.7251C19.6468 30.7251 20.0078 30.3611 20.0078 29.8564V29.8486C20.0078 29.3437 19.6432 29.1324 19.2567 29.0816L19.8583 28.4126C19.9349 28.3304 19.9859 28.2639 19.9859 28.1504C19.9859 28.0212 19.891 27.9391 19.7635 27.9391H18.4582C18.3489 27.9393 18.2613 28.0332 18.2613 28.1505ZM17.346 29.2579C17.5612 29.1366 17.7179 28.9528 17.7179 28.6476V28.6397C17.7179 28.2171 17.3424 27.9003 16.8319 27.9003C16.3214 27.9003 15.946 28.2212 15.946 28.6397V28.6476C15.946 28.9528 16.1028 29.1367 16.3178 29.2579C16.0298 29.3871 15.8584 29.5944 15.8584 29.9231V29.9308C15.8584 30.4043 16.2741 30.7174 16.8319 30.7174C17.3898 30.7174 17.8054 30.4122 17.8054 29.9231V29.9152C17.8055 29.5905 17.6268 29.3948 17.346 29.2579ZM16.3763 28.6828C16.3763 28.4753 16.5586 28.3031 16.832 28.3031C17.1056 28.3031 17.2878 28.4753 17.2878 28.6865V28.6944C17.2878 28.9292 17.0946 29.0974 16.832 29.0974C16.5694 29.0974 16.3763 28.9291 16.3763 28.6906V28.6828ZM17.3679 29.9035C17.3679 30.1305 17.1674 30.3144 16.8319 30.3144C16.4965 30.3144 16.2997 30.1266 16.2997 29.9035V29.8957C16.2997 29.6453 16.5293 29.481 16.8319 29.481C17.1346 29.481 17.3679 29.6453 17.3679 29.8957V29.9035ZM3.82918 24.6812H18.3762C18.7392 24.6812 19.0334 24.3654 19.0334 23.9758V19.1128C19.0334 18.7232 18.7392 18.4075 18.3762 18.4075H3.82918C3.46618 18.4075 3.17189 18.7232 3.17189 19.1128V23.9758C3.17189 24.3653 3.46618 24.6812 3.82918 24.6812ZM4.48646 19.8181H17.7189V23.2704H4.48646V19.8181Z" fill="#1E252B" />
</svg>
    