<svg width="25" height="24" viewBox="0 0 25 24" fill="none" xmlns="http://www.w3.org/2000/svg">
    <path d="M19.5417 18.75C20.1826 18.75 20.7973 18.9871 21.2505 19.409C21.7037 19.831 21.9583 20.4033 21.9583 21C21.9583 21.5967 21.7037 22.169 21.2505 22.591C20.7973 23.0129 20.1826 23.25 19.5417 23.25C18.2004 23.25 17.125 22.2375 17.125 21C17.125 19.7512 18.2004 18.75 19.5417 18.75ZM0.208344 0.75H4.15959L5.29543 3H23.1667C23.4871 3 23.7945 3.11853 24.0211 3.3295C24.2477 3.54048 24.375 3.82663 24.375 4.125C24.375 4.31625 24.3146 4.5075 24.23 4.6875L19.9042 11.9663C19.4933 12.6525 18.6958 13.125 17.7896 13.125H8.78751L7.70001 14.9587L7.66376 15.0938C7.66376 15.1683 7.69559 15.2399 7.75224 15.2926C7.80889 15.3454 7.88573 15.375 7.96584 15.375H21.9583V17.625H7.45834C6.11709 17.625 5.04168 16.6125 5.04168 15.375C5.04168 14.9812 5.15043 14.61 5.33168 14.295L6.97501 11.5387L2.62501 3H0.208344V0.75ZM7.45834 18.75C8.09928 18.75 8.71397 18.9871 9.16718 19.409C9.6204 19.831 9.87501 20.4033 9.87501 21C9.87501 21.5967 9.6204 22.169 9.16718 22.591C8.71397 23.0129 8.09928 23.25 7.45834 23.25C6.11709 23.25 5.04168 22.2375 5.04168 21C5.04168 19.7512 6.11709 18.75 7.45834 18.75ZM18.3333 10.875L21.6925 5.25H6.41918L9.27084 10.875H18.3333Z" fill="#FF5733" />
</svg>
    