<svg width="25" height="25" viewBox="0 0 25 25" fill="none" xmlns="http://www.w3.org/2000/svg">
    <path d="M19.4967 19.1234C19.0146 19.1252 18.5369 19.0314 18.0913 18.8474C17.6456 18.6635 17.2408 18.3931 16.9003 18.0518L13.1499 14.299C13.0172 14.1721 12.8407 14.1013 12.6572 14.1013C12.4737 14.1013 12.2972 14.1721 12.1645 14.299L8.40144 18.0621C8.06112 18.4039 7.65645 18.6748 7.2108 18.8593C6.76516 19.0438 6.28737 19.1381 5.80505 19.1369H5.0708L9.82319 23.8893C10.536 24.6005 11.5018 25 12.5087 25C13.5156 25 14.4814 24.6005 15.1942 23.8893L19.9561 19.1266L19.4967 19.1234Z" fill="#32BCAD" />
    <path d="M5.80584 5.86109C6.28817 5.8598 6.76597 5.95413 7.21162 6.13862C7.65727 6.3231 8.06194 6.59409 8.40223 6.93592L12.1653 10.6998C12.2961 10.8302 12.4733 10.9034 12.658 10.9034C12.8427 10.9034 13.0199 10.8302 13.1507 10.6998L16.9003 6.95018C17.2403 6.60792 17.6449 6.3366 18.0906 6.15196C18.5363 5.96731 19.0143 5.87302 19.4967 5.87455H19.9482L15.1863 1.11266C14.8337 0.759913 14.415 0.48009 13.9542 0.289176C13.4934 0.0982631 12.9995 0 12.5008 0C12.002 0 11.5081 0.0982631 11.0473 0.289176C10.5865 0.48009 10.1679 0.759913 9.81527 1.11266L5.0708 5.86109H5.80584Z" fill="#32BCAD" />
    <path d="M23.8873 9.81432L21.0098 6.93674C20.9449 6.96327 20.8755 6.97725 20.8054 6.97793H19.4969C18.816 6.97964 18.1633 7.25005 17.6807 7.73039L13.9311 11.4777C13.5934 11.8147 13.1357 12.004 12.6586 12.004C12.1815 12.004 11.7239 11.8147 11.3862 11.4777L7.62227 7.71614C7.1398 7.23551 6.48708 6.9648 5.80606 6.96288H4.19975C4.13355 6.96139 4.06813 6.94826 4.00649 6.92407L1.1107 9.81432C0.399448 10.5271 0 11.4929 0 12.4998C0 13.5067 0.399448 14.4725 1.1107 15.1853L4.00015 18.0748C4.06166 18.0501 4.12717 18.037 4.19342 18.036H5.80606C6.48706 18.034 7.13975 17.7633 7.62227 17.2827L11.3854 13.5196C12.0658 12.84 13.2515 12.84 13.9311 13.5196L17.6807 17.2684C18.1633 17.7488 18.816 18.0192 19.4969 18.0209H20.8054C20.8755 18.0214 20.9449 18.0354 21.0098 18.0621L23.8873 15.1845C24.2401 14.8319 24.5199 14.4132 24.7108 13.9525C24.9017 13.4917 25 12.9978 25 12.499C25 12.0003 24.9017 11.5064 24.7108 11.0456C24.5199 10.5848 24.2401 10.1661 23.8873 9.81353" fill="#32BCAD" />
</svg>
    